<svg width="66" height="224" viewBox="0 0 66 224" fill="none" xmlns="http://www.w3.org/2000/svg">
<line x1="65.5" y1="8.00342" x2="64.5" y2="154.003" stroke="#C5003C"/>
<line x1="58.5" y1="8.00342" x2="57.5" y2="154.003" stroke="#C5003C"/>
<line x1="51.5" y1="8.00342" x2="50.5" y2="154.003" stroke="#C5003C"/>
<line x1="29" y1="7.99829" x2="29" y2="154.002" stroke="#C5003C"/>
<line x1="22.5" y1="8.00342" x2="21.5" y2="154.003" stroke="#C5003C"/>
<line x1="15.5" y1="67.0034" x2="14.5" y2="213.003" stroke="#C5003C"/>
<line x1="47.5" y1="67.0034" x2="46.5" y2="213.003" stroke="#C5003C"/>
<line x1="8.49999" y1="67.0034" x2="7.49999" y2="213.003" stroke="#C5003C"/>
<line x1="40.5" y1="67.0034" x2="39.5" y2="213.003" stroke="#C5003C"/>
<line x1="36.5" y1="77.0034" x2="35.5" y2="223.003" stroke="#C5003C"/>
<line x1="7.45241" y1="50.7871" x2="15.4524" y2="67.7871" stroke="#C5003C"/>
<line x1="39.4524" y1="50.7871" x2="47.4524" y2="67.7871" stroke="#C5003C"/>
<line x1="0.452409" y1="50.7871" x2="8.45241" y2="67.7871" stroke="#C5003C"/>
<line x1="32.4524" y1="50.7871" x2="40.4524" y2="67.7871" stroke="#C5003C"/>
<line x1="32.3904" y1="72.6877" x2="36.3904" y2="77.6877" stroke="#C5003C"/>
<line x1="7.5" x2="7.5" y2="51" stroke="#C5003C"/>
<line x1="39.5" x2="39.5" y2="51" stroke="#C5003C"/>
<line x1="0.5" x2="0.5" y2="51" stroke="#C5003C"/>
<line x1="32.5" x2="32.5" y2="73" stroke="#C5003C"/>
</svg>
